<svg width="18" height="17" viewBox="0 0 18 17" fill="none" xmlns="http://www.w3.org/2000/svg">
<path d="M9.00002 0.887939C4.38021 0.887939 0.62207 4.64668 0.62207 9.26618C0.62207 10.0885 0.742584 10.9042 0.979763 11.6907L1.2504 11.85C2.9148 11.4884 4.74176 11.2507 6.68005 11.1435C6.7061 11.142 6.73009 11.1337 6.75289 11.1245L7.69183 13.4957C7.67821 13.5076 7.66548 13.5209 7.6563 13.5375C7.50766 13.8052 7.42889 14.1092 7.42889 14.4166C7.42889 15.4154 8.24169 16.2285 9.24104 16.2285C10.2401 16.2285 11.0529 15.4157 11.0529 14.4166C11.0529 13.7231 10.6668 13.101 10.045 12.7928C9.96472 12.7534 9.8676 12.7863 9.82792 12.8659C9.78824 12.9465 9.82082 13.0433 9.90135 13.0833C10.4118 13.3364 10.7287 13.8475 10.7287 14.4169C10.7287 15.2371 10.0612 15.9042 9.24104 15.9042C8.42084 15.9042 7.75342 15.2371 7.75342 14.4169C7.75342 14.2381 7.78747 14.0607 7.84965 13.8943L8.13036 14.6029C8.18425 14.8246 8.3936 15.0381 8.66335 15.1462C8.79008 15.1971 8.92184 15.222 9.05391 15.222C9.25407 15.222 9.45335 15.1643 9.63308 15.0512C10.2511 14.7275 10.2362 14.0746 10.0769 13.7296L6.61342 7.19228C6.43902 6.81415 6.02862 6.63116 5.69817 6.78306C5.53383 6.85857 5.4148 7.00425 5.36357 7.19287C5.31501 7.37083 5.33337 7.56685 5.41184 7.73622L6.57996 10.686C5.11751 10.7695 3.7202 10.9288 2.40432 11.1571C2.2838 10.6351 2.21955 10.1086 2.21955 9.58834C2.21955 9.43615 2.23228 9.28721 2.24176 9.13738C2.26574 9.15159 2.29239 9.16195 2.32259 9.16195H3.34385C3.43327 9.16195 3.50582 9.0897 3.50582 8.99999C3.50582 8.91056 3.43327 8.83802 3.34385 8.83802H2.32259C2.30038 8.83802 2.27906 8.84246 2.25982 8.85075C2.4434 7.10137 3.27486 5.55097 4.49925 4.44444C4.50695 4.46635 4.51849 4.48737 4.53626 4.50514L5.04763 5.01621C5.07931 5.04789 5.12077 5.06388 5.16222 5.06388C5.20368 5.06388 5.24513 5.04789 5.27711 5.01621C5.34048 4.95285 5.34048 4.85039 5.27681 4.78703L4.76515 4.27595C4.75241 4.26293 4.73672 4.25434 4.72132 4.24694C5.83586 3.32487 7.24353 2.76316 8.77675 2.72556V3.74563C8.77675 3.83535 8.8493 3.9076 8.93872 3.9076C9.02815 3.9076 9.10099 3.83535 9.10099 3.74563V2.72556C10.8418 2.7682 12.4191 3.48891 13.5911 4.64164L12.8775 5.25665C12.8097 5.31498 12.802 5.41743 12.8603 5.48554C12.8923 5.52255 12.9379 5.5418 12.9832 5.5418C13.0208 5.5418 13.0584 5.52877 13.0889 5.50241L13.8158 4.87586C14.7959 5.9362 15.453 7.31101 15.6161 8.83802H14.9846C14.8951 8.83802 14.8223 8.91056 14.8223 8.99999C14.8223 9.0897 14.8948 9.16195 14.9846 9.16195H15.6372C15.6458 9.30379 15.6582 9.44444 15.6582 9.58834C15.6582 10.0965 15.5966 10.6108 15.4814 11.1213C13.7839 10.8083 12.0777 10.6235 9.75538 10.6235C9.62746 10.6235 9.52382 10.7275 9.52382 10.8554C9.52382 10.9833 9.62746 11.0869 9.75538 11.0869C12.6548 11.0869 14.5813 11.3789 16.7493 11.85L17.0203 11.6907C17.2577 10.9042 17.378 10.0885 17.378 9.26618C17.378 4.64668 13.6195 0.887939 9.00002 0.887939ZM5.70942 7.60889C5.65938 7.50022 5.64753 7.38267 5.67626 7.27815C5.70202 7.18369 5.75798 7.11262 5.83378 7.07739C5.86843 7.0614 5.90544 7.05429 5.94334 7.05429C6.08666 7.05429 6.24211 7.16237 6.32265 7.33648L9.78647 13.8738C9.86227 14.0385 9.95525 14.5205 9.47763 14.7669L9.4646 14.7743C9.17709 14.9591 8.91503 14.899 8.78416 14.8457C8.58547 14.7657 8.4691 14.6245 8.4386 14.5051L5.70942 7.60889ZM16.6359 11.3519C16.3549 11.2918 16.0772 11.2353 15.8003 11.1817C15.9191 10.6516 15.9824 10.1172 15.9824 9.58864C15.9824 9.39054 15.9727 9.19482 15.957 9.00087V8.99999C15.957 8.99969 15.9567 8.9991 15.9567 8.9988C15.819 7.2743 15.0846 5.72035 13.9642 4.55311C13.9612 4.54896 13.9603 4.54393 13.9568 4.54008C13.9518 4.53416 13.9449 4.53149 13.939 4.52646C12.6619 3.20969 10.8921 2.39274 8.93843 2.39274C5.05444 2.39274 1.89472 5.62056 1.89472 9.58864C1.89472 10.129 1.96135 10.6756 2.08541 11.2172C1.84409 11.2616 1.59951 11.3031 1.3644 11.3522C1.17904 10.673 1.08518 9.97209 1.08518 9.26618C1.08518 4.90192 4.63575 1.35164 9.00002 1.35164C13.3643 1.35164 16.9149 4.90192 16.9149 9.26618C16.9149 9.97209 16.821 10.6727 16.6359 11.3519Z" fill="white"/>
</svg>
